<?xml version="1.0" encoding="utf-8"?>
<!-- Generator: Adobe Illustrator 25.0.1, SVG Export Plug-In . SVG Version: 6.00 Build 0)  -->
<svg version="1.1" id="图层_1" xmlns="http://www.w3.org/2000/svg" xmlns:xlink="http://www.w3.org/1999/xlink" x="0px" y="0px"
	 viewBox="0 0 300 60" style="enable-background:new 0 0 300 60;" xml:space="preserve">
<style type="text/css">
	.st0{fill:url(#SVGID_1_);}
	.st1{fill:#FFFFFF;}
	.st2{fill:url(#SVGID_2_);}
	.st3{display:none;fill:#FFFFFF;}
	.st4{fill:url(#SVGID_3_);}
	.st5{fill:url(#SVGID_4_);}
</style>
<linearGradient id="SVGID_1_" gradientUnits="userSpaceOnUse" x1="5.1807" y1="59.6018" x2="288.6" y2="1.6695">
	<stop  offset="0" style="stop-color:#854BAA"/>
	<stop  offset="0.5" style="stop-color:#CA406D"/>
	<stop  offset="1" style="stop-color:#F89B4F"/>
</linearGradient>
<path class="st0" d="M286.5,60h-273C6,60,0,54,0,46.5v-33C0,6,6,0,13.5,0h273C294,0,300,6,300,13.5v33C300,54,294,60,286.5,60z"/>
<g>
	<path class="st1" d="M113.3,19.1h13.7v3.1H117v7.1h8.6v3.1H117v10h-3.7V19.1z"/>
	<path class="st1" d="M129.1,33.7c0-5.8,3.9-9.1,8.2-9.1s8.2,3.3,8.2,9.1c0,5.8-3.9,9.1-8.2,9.1S129.1,39.4,129.1,33.7z M141.7,33.7
		c0-3.7-1.7-6.1-4.4-6.1c-2.7,0-4.4,2.5-4.4,6.1c0,3.7,1.7,6.1,4.4,6.1C140,39.8,141.7,37.4,141.7,33.7z"/>
	<path class="st1" d="M149.7,38.3v-21h3.6v21.2c0,1,0.4,1.3,0.9,1.3c0.2,0,0.3,0,0.6-0.1l0.5,2.7c-0.4,0.2-1,0.3-2,0.3
		C150.6,42.8,149.7,41.1,149.7,38.3z"/>
	<path class="st1" d="M159.1,38.3v-21h3.6v21.2c0,1,0.4,1.3,0.9,1.3c0.2,0,0.3,0,0.6-0.1l0.5,2.7c-0.4,0.2-1,0.3-2,0.3
		C160,42.8,159.1,41.1,159.1,38.3z"/>
	<path class="st1" d="M167.2,33.7c0-5.8,3.9-9.1,8.2-9.1s8.2,3.3,8.2,9.1c0,5.8-3.9,9.1-8.2,9.1S167.2,39.4,167.2,33.7z M179.8,33.7
		c0-3.7-1.7-6.1-4.4-6.1c-2.7,0-4.4,2.5-4.4,6.1c0,3.7,1.7,6.1,4.4,6.1C178.1,39.8,179.8,37.4,179.8,33.7z"/>
	<path class="st1" d="M185.7,25h3.7l2.3,9.4c0.3,1.7,0.6,3.3,0.9,4.9h0.1c0.4-1.7,0.7-3.3,1.1-4.9l2.5-9.4h3.3l2.5,9.4
		c0.4,1.7,0.8,3.3,1.2,4.9h0.1c0.3-1.7,0.6-3.2,1-4.9l2.2-9.4h3.4l-4.5,17.3h-4.3l-2.2-8.6c-0.4-1.6-0.7-3.2-1.1-5h-0.2
		c-0.3,1.8-0.7,3.4-1.1,5l-2.1,8.5h-4.2L185.7,25z"/>
	<path class="st1" d="M221,32.4V19.1h3.7v13.5c0,5.2,2.1,6.9,5,6.9c2.9,0,5.1-1.7,5.1-6.9V19.1h3.5v13.3c0,7.6-3.5,10.4-8.6,10.4
		S221,40,221,32.4z"/>
	<path class="st1" d="M241.8,40.4l1.7-2.3c1.5,1.2,3.1,2,4.9,2c2.1,0,3.1-1,3.1-2.3c0-1.6-2-2.3-3.8-3c-2.3-0.9-4.9-2.1-4.9-5
		c0-2.9,2.3-5.1,6.2-5.1c2.3,0,4.2,0.9,5.6,2l-1.7,2.2c-1.2-0.9-2.4-1.5-3.8-1.5c-1.9,0-2.8,0.9-2.8,2.1c0,1.5,1.7,2,3.6,2.7
		c2.4,0.9,5.1,2,5.1,5.3c0,2.9-2.3,5.3-6.6,5.3C246,42.8,243.5,41.7,241.8,40.4z"/>
</g>
<g>
	<linearGradient id="SVGID_2_" gradientUnits="userSpaceOnUse" x1="75.7655" y1="16.0976" x2="49.4072" y2="42.4558">
		<stop  offset="0" style="stop-color:#854BAA"/>
		<stop  offset="0.5" style="stop-color:#CA406D"/>
		<stop  offset="1" style="stop-color:#F89B4F"/>
	</linearGradient>
	<path class="st2" d="M43.2,41.1c0-7.4,0-14.8,0-22.1c0-0.1,0.1-0.1,0.1-0.2c0.5-4.2,4-7.4,8.3-7.4c6.9,0,13.8,0,20.6,0
		c4.6,0,8.3,3.7,8.3,8.3c0,6.9,0,13.7,0,20.6c0,3.8-2.6,7.1-6.2,8c-0.4,0.1-0.9,0.2-1.3,0.3c-7.4,0-14.8,0-22.1,0
		c-0.1,0-0.2-0.1-0.2-0.1c-3.5-0.6-5.8-2.5-7-5.9C43.4,42.2,43.3,41.6,43.2,41.1z M61.7,42.1C61.7,42.1,61.7,42.1,61.7,42.1
		c1.7,0,3.5,0,5.2,0c3.9,0,6.8-2.7,7-7c0.1-3.4,0-6.9,0-10.3c0-0.5-0.1-1.1-0.2-1.6c-0.7-3.5-3.3-5.3-6.6-5.4c-3.3-0.1-6.6,0-9.9,0
		c-0.7,0-1.4,0.1-2.1,0.3c-0.2,0.1-0.5,0.1-0.7,0.2c-1.6,0.5-2.8,1.4-3.7,2.8c-0.8,1.4-1,2.9-1,4.4c0,3.2,0,6.4,0,9.5
		c0,3.9,3,7,6.9,7C58.3,42.1,60,42.1,61.7,42.1z"/>
	<path class="st3" d="M72.9,48.7c0.4-0.1,0.9-0.2,1.3-0.3c3.7-1,6.2-4.3,6.2-8c0-6.9,0-13.7,0-20.6c0-4.6-3.7-8.3-8.3-8.3
		c-6.9,0-13.8,0-20.6,0c-4.2,0-7.7,3.1-8.3,7.4c0,0.1,0,0.1-0.1,0.2c0-2.5,0-5.1,0-7.6c12.4,0,24.9,0,37.3,0c0,12.4,0,24.9,0,37.3
		C78,48.7,75.4,48.7,72.9,48.7z"/>
	<path class="st3" d="M43.2,41.1c0.1,0.5,0.2,1.1,0.4,1.6c1.1,3.4,3.5,5.3,7,5.9c0.1,0,0.2,0,0.2,0.1c-2.5,0-5,0-7.6,0
		C43.2,46.1,43.2,43.6,43.2,41.1z"/>
	<path class="st1" d="M61.7,42.1c-1.7,0-3.4,0-5.2,0c-3.9,0-6.9-3.1-6.9-7c0-3.2,0-6.4,0-9.5c0-1.5,0.2-3.1,1-4.4
		c0.9-1.4,2.1-2.3,3.7-2.8c0.2-0.1,0.5-0.1,0.7-0.2c0.7-0.3,1.4-0.3,2.1-0.3c3.3,0,6.6-0.1,9.9,0c3.4,0.1,6,1.9,6.6,5.4
		c0.1,0.5,0.2,1.1,0.2,1.6c0,3.4,0.1,6.9,0,10.3c-0.1,4.2-3,6.9-7,7C65.2,42.2,63.5,42.1,61.7,42.1C61.7,42.1,61.7,42.1,61.7,42.1z
		 M52.1,30.1C52.1,30.1,52.1,30.1,52.1,30.1c0,0.9,0,1.8,0,2.7c0,0.9,0,1.8,0,2.7c0,1.8,1.1,3.5,2.8,4.1c0.7,0.3,1.5,0.3,2.3,0.3
		c3.4,0,6.7,0,10.1,0c2.4,0,4-1.4,4.3-3.8c0.2-1.2,0.2-2.4,0.2-3.7c0-2.5,0-5-0.1-7.5c0-2.5-1.9-4.5-4.4-4.6c-1.5-0.1-3-0.1-4.5-0.1
		c-2.1,0-4.3,0-6.4,0.1c-2.4,0-4.3,2-4.3,4.4C52.1,26.5,52.1,28.3,52.1,30.1z"/>
	<linearGradient id="SVGID_3_" gradientUnits="userSpaceOnUse" x1="68.9599" y1="23.0716" x2="55.0352" y2="36.9963">
		<stop  offset="0" style="stop-color:#854BAA"/>
		<stop  offset="0.5" style="stop-color:#CA406D"/>
		<stop  offset="1" style="stop-color:#F89B4F"/>
	</linearGradient>
	<path class="st4" d="M52.1,30.1c0-1.8,0-3.5,0-5.3c0-2.4,1.9-4.4,4.3-4.4c2.1,0,4.3-0.1,6.4-0.1c1.5,0,3,0,4.5,0.1
		c2.5,0.1,4.4,2.1,4.4,4.6c0,2.5,0.1,5,0.1,7.5c0,1.2,0,2.5-0.2,3.7c-0.4,2.4-1.9,3.7-4.3,3.8c-3.4,0.1-6.7,0-10.1,0
		c-0.8,0-1.5,0-2.3-0.3c-1.7-0.7-2.8-2.3-2.8-4.1c0-0.9,0-1.8,0-2.7C52.1,31.9,52.1,31,52.1,30.1C52.1,30.1,52.1,30.1,52.1,30.1z
		 M55.6,30.1c0,3.5,2.9,6.4,6.4,6.4c3.4,0,6.3-2.9,6.3-6.3c0-3.4-2.9-6.3-6.4-6.4C58.5,23.8,55.6,26.7,55.6,30.1z M68.4,22
		c-0.8,0-1.5,0.7-1.5,1.5c0,0.9,0.7,1.6,1.6,1.6c0.8,0,1.5-0.7,1.5-1.5C70,22.8,69.2,22,68.4,22z"/>
	<path class="st1" d="M55.6,30.1c0-3.4,2.9-6.3,6.3-6.3c3.5,0,6.4,2.9,6.4,6.4c0,3.4-2.9,6.3-6.3,6.3C58.5,36.5,55.6,33.6,55.6,30.1
		z M61.9,26.2c-2.2,0-4,1.8-4,3.9c0,2.1,1.8,3.9,3.9,3.9c2.2,0,3.9-1.8,3.9-3.9C65.8,27.9,64.1,26.2,61.9,26.2z"/>
	<path class="st1" d="M68.4,22c0.9,0,1.6,0.7,1.6,1.6c0,0.8-0.7,1.5-1.5,1.5c-0.9,0-1.6-0.7-1.6-1.6C66.9,22.7,67.5,22,68.4,22z"/>
	<linearGradient id="SVGID_4_" gradientUnits="userSpaceOnUse" x1="64.6449" y1="27.3627" x2="59.0855" y2="32.9221">
		<stop  offset="0" style="stop-color:#854BAA"/>
		<stop  offset="0.5" style="stop-color:#CA406D"/>
		<stop  offset="1" style="stop-color:#F89B4F"/>
	</linearGradient>
	<path class="st5" d="M61.9,26.2c2.2,0,3.9,1.7,3.9,3.9c0,2.2-1.8,3.9-3.9,3.9c-2.2,0-3.9-1.8-3.9-3.9C58,27.9,59.7,26.2,61.9,26.2z
		"/>
</g>
</svg>
